# xmcd
#
# Track frame offsets: 
#        182
#        15562
#        26852
#        35690
#        49740
#        60232
#        72742
#        95870
#        106295
#        115825
#        128112
#        140105
#        152452
#        165267
#        178805
#
# Disc length: 2558 seconds
#
# Revision: 5
# Processed by: cddbd v1.5.2PL0 Copyright (c) Steve Scherf et al.
# Submitted via: ExactAudioCopyFreeDBPlugin 1.0
#
DISCID=d009fc0f
DTITLE=Arthur Alexander - Rainbow Road:  The Warner Bros. Recordings
DYEAR=1994
DGENRE=Soul
TTITLE0=Rainbow Road
TTITLE1=Down the Backroads
TTITLE2=I'm Comin' Home
TTITLE3=In the Middle of it All
TTITLE4=Call Me Honey
TTITLE5=Lover Please
TTITLE6=You Got Me Knockin'
TTITLE7=It Hurts to Want it So Bad
TTITLE8=Love's Where Life Begins
TTITLE9=Come Along with Me
TTITLE10=Burning Love
TTITLE11=Go Home Girl
TTITLE12=They'll Do it Everytime
TTITLE13=Mr. John
TTITLE14=Thank God He Came
EXTD=
EXTT0=
EXTT1=
EXTT2=
EXTT3=
EXTT4=
EXTT5=
EXTT6=
EXTT7=
EXTT8=
EXTT9=
EXTT10=
EXTT11=
EXTT12=
EXTT13=
EXTT14=
PLAYORDER=
